<?xml version="1.0" encoding="UTF-8" standalone="no"?>
<!-- Generator: Adobe Illustrator 27.5.0, SVG Export Plug-In . SVG Version: 6.00 Build 0)  -->

<svg
   version="1.1"
   id="Layer_1"
   x="0px"
   y="0px"
   viewBox="0 0 329.388 413.705"
   style="enable-background:new 0 0 329.388 413.705;"
   xml:space="preserve"
   sodipodi:docname="25539598_3o0w_tjva_211129.svg"
   inkscape:version="1.4.2 (ebf0e940, 2025-05-08)"
   xmlns:inkscape="http://www.inkscape.org/namespaces/inkscape"
   xmlns:sodipodi="http://sodipodi.sourceforge.net/DTD/sodipodi-0.dtd"
   xmlns="http://www.w3.org/2000/svg"
   xmlns:svg="http://www.w3.org/2000/svg"><defs
   id="defs452" /><sodipodi:namedview
   id="namedview452"
   pagecolor="#ffffff"
   bordercolor="#000000"
   borderopacity="0.25"
   inkscape:showpageshadow="2"
   inkscape:pageopacity="0.0"
   inkscape:pagecheckerboard="0"
   inkscape:deskcolor="#d1d1d1"
   inkscape:zoom="1.56"
   inkscape:cx="153.52564"
   inkscape:cy="235.89744"
   inkscape:window-width="1168"
   inkscape:window-height="859"
   inkscape:window-x="371"
   inkscape:window-y="175"
   inkscape:window-maximized="0"
   inkscape:current-layer="g452" />
<g
   id="g452">
	<g
   id="g151">
		<g
   id="g23">
			<g
   id="g21">
				<g
   id="g8">
					<g
   id="g7">
						<g
   id="g2">
							<polygon
   style="fill:#231F20;"
   points="46.418,234.067 46.116,233.924 64.422,195.501 64.724,195.645        "
   id="polygon1" />
							<polygon
   style="fill:#231F20;"
   points="83.872,234.067 65.566,195.645 65.868,195.501 84.174,233.924        "
   id="polygon2" />
						</g>
						<g
   id="g5">
							<rect
   x="33.556"
   y="231.301"
   style="fill:#999B9E;"
   width="64.324"
   height="6.231"
   id="rect2" />
							<rect
   x="33.556"
   y="231.301"
   style="fill:#999B9E;"
   width="64.324"
   height="1.909"
   id="rect3" />
							<rect
   x="33.556"
   y="235.848"
   style="fill:#D5D7D8;"
   width="64.324"
   height="1.684"
   id="rect4" />
							<rect
   x="33.556"
   y="230.46"
   style="fill:#D5D7D8;"
   width="64.324"
   height="1.685"
   id="rect5" />
						</g>
						<rect
   x="47.626"
   y="229.939"
   style="fill:#231F20;"
   width="0.335"
   height="7.593"
   id="rect6" />
						<rect
   x="82.459"
   y="229.939"
   style="fill:#231F20;"
   width="0.335"
   height="7.593"
   id="rect7" />
					</g>
				</g>
				<g
   id="g14">
					<g
   id="g13">
						<g
   id="g11">
							<rect
   x="38.245"
   y="226.775"
   style="fill:#999B9E;"
   width="64.324"
   height="3.972"
   id="rect8" />
							<rect
   x="38.245"
   y="226.775"
   style="fill:#999B9E;"
   width="64.324"
   height="1.215"
   id="rect9" />
							<rect
   x="38.245"
   y="229.672"
   style="fill:#D5D7D8;"
   width="64.324"
   height="1.075"
   id="rect10" />
							<rect
   x="38.245"
   y="226.236"
   style="fill:#D5D7D8;"
   width="64.324"
   height="1.074"
   id="rect11" />
						</g>
						<rect
   x="52.315"
   y="225.904"
   style="fill:#231F20;"
   width="0.334"
   height="4.843"
   id="rect12" />
						<rect
   x="87.147"
   y="225.904"
   style="fill:#231F20;"
   width="0.335"
   height="4.843"
   id="rect13" />
					</g>
				</g>
				<g
   id="g20">
					<g
   id="g19">
						<g
   id="g17">
							<rect
   x="33.373"
   y="223.236"
   style="fill:#999B9E;"
   width="64.325"
   height="3.975"
   id="rect14" />
							<rect
   x="33.373"
   y="223.236"
   style="fill:#999B9E;"
   width="64.325"
   height="1.218"
   id="rect15" />
							<rect
   x="33.373"
   y="226.137"
   style="fill:#D5D7D8;"
   width="64.325"
   height="1.074"
   id="rect16" />
							<rect
   x="33.373"
   y="222.7"
   style="fill:#D5D7D8;"
   width="64.325"
   height="1.074"
   id="rect17" />
						</g>
						<rect
   x="47.444"
   y="222.366"
   style="fill:#231F20;"
   width="0.335"
   height="4.845"
   id="rect18" />
						<rect
   x="82.276"
   y="222.366"
   style="fill:#231F20;"
   width="0.336"
   height="4.845"
   id="rect19" />
					</g>
				</g>
			</g>
			<polygon
   style="fill:#231F20;"
   points="65.871,194.721 65.201,194.721 61.745,85.104 62.415,85.084 65.536,184.101      68.657,85.469 69.326,85.49    "
   id="polygon21" />
			<g
   id="g22">
				<rect
   x="64.168"
   y="191.529"
   style="fill:#53360E;"
   width="2.735"
   height="2.065"
   id="rect21" />
				<rect
   x="62.982"
   y="192.813"
   style="fill:#633F02;"
   width="5.47"
   height="4.048"
   id="rect22" />
			</g>
			<path
   style="fill:#999B9E;"
   d="M66.771,194.838c0,0.681-0.553,1.232-1.235,1.232l0,0c-0.682,0-1.235-0.552-1.235-1.232l0,0     c0-0.683,0.553-1.236,1.235-1.236l0,0C66.218,193.602,66.771,194.155,66.771,194.838L66.771,194.838z"
   id="path22" />
		</g>
		<g
   id="g24">
			<rect
   x="309.864"
   y="96.973"
   style="fill:#231F20;"
   width="12.126"
   height="12.292"
   id="rect23" />
		</g>
		<g
   id="g25">
			<rect
   x="307.331"
   y="85.818"
   style="fill:#4F4F51;"
   width="16.411"
   height="15.427"
   id="rect24" />
			<rect
   x="308.59"
   y="86.735"
   style="fill:#222224;"
   width="13.851"
   height="13.68"
   id="rect25" />
		</g>
		<g
   id="g143">
			<g
   id="g101">
				<g
   id="g36">
					<g
   id="g30">
						<g
   id="g27">
							<rect
   x="253.917"
   y="382.307"
   style="fill:#BE892D;"
   width="1.381"
   height="5.111"
   id="rect26" />
							<rect
   x="259.275"
   y="382.307"
   style="fill:#BE892D;"
   width="1.381"
   height="5.111"
   id="rect27" />
						</g>
						<g
   id="g29">
							<rect
   x="253.917"
   y="362.673"
   style="fill:#BE892D;"
   width="1.381"
   height="5.112"
   id="rect28" />
							<rect
   x="259.275"
   y="362.673"
   style="fill:#BE892D;"
   width="1.381"
   height="5.112"
   id="rect29" />
						</g>
					</g>
					<g
   id="g33">
						<g
   id="g31">
							<polygon
   style="fill:#AA7A26;"
   points="263.391,382.471 250.747,367.95 251.619,367.62 264.261,382.142        "
   id="polygon30" />
						</g>
						<rect
   x="249.589"
   y="381.719"
   style="fill:#BE892D;"
   width="16.328"
   height="1.176"
   id="rect31" />
						<rect
   x="249.589"
   y="367.196"
   style="fill:#BE892D;"
   width="16.328"
   height="1.177"
   id="rect32" />
						<rect
   x="249.589"
   y="386.83"
   style="fill:#BE892D;"
   width="16.328"
   height="1.176"
   id="rect33" />
					</g>
					<g
   id="g35">
						<g
   id="g34">
							<polygon
   style="fill:#AA7A26;"
   points="251.614,362.673 250.752,362.333 263.897,347.812 264.759,348.152        "
   id="polygon33" />
						</g>
						<rect
   x="249.589"
   y="361.915"
   style="fill:#BE892D;"
   width="16.328"
   height="1.176"
   id="rect34" />
						<rect
   x="249.589"
   y="347.394"
   style="fill:#BE892D;"
   width="16.328"
   height="1.177"
   id="rect35" />
					</g>
				</g>
				<g
   id="g45">
					<g
   id="g40">
						<g
   id="g37">
							<rect
   x="253.917"
   y="342.87"
   style="fill:#BE892D;"
   width="1.381"
   height="5.111"
   id="rect36" />
							<rect
   x="259.275"
   y="342.87"
   style="fill:#BE892D;"
   width="1.381"
   height="5.111"
   id="rect37" />
						</g>
						<g
   id="g39">
							<rect
   x="253.917"
   y="323.236"
   style="fill:#BE892D;"
   width="1.381"
   height="5.111"
   id="rect38" />
							<rect
   x="259.275"
   y="323.236"
   style="fill:#BE892D;"
   width="1.381"
   height="5.111"
   id="rect39" />
						</g>
					</g>
					<g
   id="g42">
						<g
   id="g41">
							<polygon
   style="fill:#AA7A26;"
   points="263.391,343.034 250.747,328.514 251.619,328.184 264.261,342.704        "
   id="polygon40" />
						</g>
						<rect
   x="249.589"
   y="342.281"
   style="fill:#BE892D;"
   width="16.328"
   height="1.177"
   id="rect41" />
						<rect
   x="249.589"
   y="327.759"
   style="fill:#BE892D;"
   width="16.328"
   height="1.179"
   id="rect42" />
					</g>
					<g
   id="g44">
						<g
   id="g43">
							<polygon
   style="fill:#AA7A26;"
   points="251.614,323.236 250.752,322.897 263.897,308.375 264.759,308.716        "
   id="polygon42" />
						</g>
						<rect
   x="249.589"
   y="322.477"
   style="fill:#BE892D;"
   width="16.328"
   height="1.177"
   id="rect43" />
						<rect
   x="249.589"
   y="307.958"
   style="fill:#BE892D;"
   width="16.328"
   height="1.176"
   id="rect44" />
					</g>
				</g>
				<g
   id="g54">
					<g
   id="g49">
						<g
   id="g46">
							<rect
   x="253.917"
   y="303.663"
   style="fill:#BE892D;"
   width="1.381"
   height="5.112"
   id="rect45" />
							<rect
   x="259.275"
   y="303.663"
   style="fill:#BE892D;"
   width="1.381"
   height="5.112"
   id="rect46" />
						</g>
						<g
   id="g48">
							<rect
   x="253.917"
   y="284.028"
   style="fill:#BE892D;"
   width="1.381"
   height="5.113"
   id="rect47" />
							<rect
   x="259.275"
   y="284.028"
   style="fill:#BE892D;"
   width="1.381"
   height="5.113"
   id="rect48" />
						</g>
					</g>
					<g
   id="g51">
						<g
   id="g50">
							<polygon
   style="fill:#AA7A26;"
   points="263.391,303.828 250.747,289.306 251.619,288.977 264.261,303.497        "
   id="polygon49" />
						</g>
						<rect
   x="249.589"
   y="303.074"
   style="fill:#BE892D;"
   width="16.328"
   height="1.177"
   id="rect50" />
						<rect
   x="249.589"
   y="288.553"
   style="fill:#BE892D;"
   width="16.328"
   height="1.177"
   id="rect51" />
					</g>
					<g
   id="g53">
						<g
   id="g52">
							<polygon
   style="fill:#AA7A26;"
   points="251.614,284.028 250.752,283.689 263.897,269.168 264.759,269.508        "
   id="polygon51" />
						</g>
						<rect
   x="249.589"
   y="283.27"
   style="fill:#BE892D;"
   width="16.328"
   height="1.177"
   id="rect52" />
						<rect
   x="249.589"
   y="268.75"
   style="fill:#BE892D;"
   width="16.328"
   height="1.177"
   id="rect53" />
					</g>
				</g>
				<g
   id="g63">
					<g
   id="g58">
						<g
   id="g55">
							<rect
   x="253.917"
   y="264.227"
   style="fill:#BE892D;"
   width="1.381"
   height="5.111"
   id="rect54" />
							<rect
   x="259.275"
   y="264.227"
   style="fill:#BE892D;"
   width="1.381"
   height="5.111"
   id="rect55" />
						</g>
						<g
   id="g57">
							<rect
   x="253.917"
   y="244.592"
   style="fill:#BE892D;"
   width="1.381"
   height="5.112"
   id="rect56" />
							<rect
   x="259.275"
   y="244.592"
   style="fill:#BE892D;"
   width="1.381"
   height="5.112"
   id="rect57" />
						</g>
					</g>
					<g
   id="g60">
						<g
   id="g59">
							<polygon
   style="fill:#AA7A26;"
   points="263.391,264.39 250.747,249.869 251.619,249.54 264.261,264.061        "
   id="polygon58" />
						</g>
						<rect
   x="249.589"
   y="263.637"
   style="fill:#BE892D;"
   width="16.328"
   height="1.178"
   id="rect59" />
						<rect
   x="249.589"
   y="249.115"
   style="fill:#BE892D;"
   width="16.328"
   height="1.179"
   id="rect60" />
					</g>
					<g
   id="g62">
						<g
   id="g61">
							<polygon
   style="fill:#AA7A26;"
   points="251.614,244.592 250.752,244.252 263.897,229.732 264.759,230.071        "
   id="polygon60" />
						</g>
						<rect
   x="249.589"
   y="243.835"
   style="fill:#BE892D;"
   width="16.328"
   height="1.175"
   id="rect61" />
						<rect
   x="249.589"
   y="229.314"
   style="fill:#BE892D;"
   width="16.328"
   height="1.176"
   id="rect62" />
					</g>
				</g>
				<g
   id="g72">
					<g
   id="g67">
						<g
   id="g64">
							<rect
   x="253.917"
   y="224.79"
   style="fill:#BE892D;"
   width="1.381"
   height="5.111"
   id="rect63" />
							<rect
   x="259.275"
   y="224.79"
   style="fill:#BE892D;"
   width="1.381"
   height="5.111"
   id="rect64" />
						</g>
						<g
   id="g66">
							<rect
   x="253.917"
   y="205.156"
   style="fill:#BE892D;"
   width="1.381"
   height="5.111"
   id="rect65" />
							<rect
   x="259.275"
   y="205.156"
   style="fill:#BE892D;"
   width="1.381"
   height="5.111"
   id="rect66" />
						</g>
					</g>
					<g
   id="g69">
						<g
   id="g68">
							<polygon
   style="fill:#AA7A26;"
   points="263.391,224.954 250.747,210.433 251.619,210.104 264.261,224.623        "
   id="polygon67" />
						</g>
						<rect
   x="249.589"
   y="224.2"
   style="fill:#BE892D;"
   width="16.328"
   height="1.179"
   id="rect68" />
						<rect
   x="249.589"
   y="209.68"
   style="fill:#BE892D;"
   width="16.328"
   height="1.177"
   id="rect69" />
					</g>
					<g
   id="g71">
						<g
   id="g70">
							<polygon
   style="fill:#AA7A26;"
   points="251.614,205.156 250.752,204.816 263.897,190.296 264.759,190.634        "
   id="polygon69" />
						</g>
						<rect
   x="249.589"
   y="204.398"
   style="fill:#BE892D;"
   width="16.328"
   height="1.177"
   id="rect70" />
						<rect
   x="249.589"
   y="189.875"
   style="fill:#BE892D;"
   width="16.328"
   height="1.178"
   id="rect71" />
					</g>
				</g>
				<g
   id="g81">
					<g
   id="g76">
						<g
   id="g73">
							<rect
   x="253.917"
   y="185.353"
   style="fill:#BE892D;"
   width="1.381"
   height="5.112"
   id="rect72" />
							<rect
   x="259.275"
   y="185.353"
   style="fill:#BE892D;"
   width="1.381"
   height="5.112"
   id="rect73" />
						</g>
						<g
   id="g75">
							<rect
   x="253.917"
   y="165.719"
   style="fill:#BE892D;"
   width="1.381"
   height="5.112"
   id="rect74" />
							<rect
   x="259.275"
   y="165.719"
   style="fill:#BE892D;"
   width="1.381"
   height="5.112"
   id="rect75" />
						</g>
					</g>
					<g
   id="g78">
						<g
   id="g77">
							<polygon
   style="fill:#AA7A26;"
   points="263.391,185.518 250.747,170.996 251.619,170.666 264.261,185.187        "
   id="polygon76" />
						</g>
						<rect
   x="249.589"
   y="184.764"
   style="fill:#BE892D;"
   width="16.328"
   height="1.177"
   id="rect77" />
						<rect
   x="249.589"
   y="170.243"
   style="fill:#BE892D;"
   width="16.328"
   height="1.175"
   id="rect78" />
					</g>
					<g
   id="g80">
						<g
   id="g79">
							<polygon
   style="fill:#AA7A26;"
   points="251.614,165.719 250.752,165.379 263.897,150.857 264.759,151.197        "
   id="polygon78" />
						</g>
						<rect
   x="249.589"
   y="164.96"
   style="fill:#BE892D;"
   width="16.328"
   height="1.177"
   id="rect79" />
						<rect
   x="249.589"
   y="150.439"
   style="fill:#BE892D;"
   width="16.328"
   height="1.179"
   id="rect80" />
					</g>
				</g>
				<g
   id="g90">
					<g
   id="g85">
						<g
   id="g82">
							<rect
   x="253.917"
   y="146.145"
   style="fill:#BE892D;"
   width="1.381"
   height="5.112"
   id="rect81" />
							<rect
   x="259.275"
   y="146.145"
   style="fill:#BE892D;"
   width="1.381"
   height="5.112"
   id="rect82" />
						</g>
						<g
   id="g84">
							<rect
   x="253.917"
   y="126.513"
   style="fill:#BE892D;"
   width="1.381"
   height="5.111"
   id="rect83" />
							<rect
   x="259.275"
   y="126.513"
   style="fill:#BE892D;"
   width="1.381"
   height="5.111"
   id="rect84" />
						</g>
					</g>
					<g
   id="g87">
						<g
   id="g86">
							<polygon
   style="fill:#AA7A26;"
   points="263.391,146.311 250.747,131.789 251.619,131.459 264.261,145.98        "
   id="polygon85" />
						</g>
						<rect
   x="249.589"
   y="145.557"
   style="fill:#BE892D;"
   width="16.328"
   height="1.178"
   id="rect86" />
						<rect
   x="249.589"
   y="131.036"
   style="fill:#BE892D;"
   width="16.328"
   height="1.176"
   id="rect87" />
					</g>
					<g
   id="g89">
						<g
   id="g88">
							<polygon
   style="fill:#AA7A26;"
   points="251.614,126.513 250.752,126.172 263.897,111.652 264.759,111.991        "
   id="polygon87" />
						</g>
						<rect
   x="249.589"
   y="125.754"
   style="fill:#BE892D;"
   width="16.328"
   height="1.177"
   id="rect88" />
						<rect
   x="249.589"
   y="111.231"
   style="fill:#BE892D;"
   width="16.328"
   height="1.178"
   id="rect89" />
					</g>
				</g>
				<g
   id="g98">
					<g
   id="g94">
						<g
   id="g91">
							<rect
   x="253.917"
   y="106.708"
   style="fill:#BE892D;"
   width="1.381"
   height="5.112"
   id="rect90" />
							<rect
   x="259.275"
   y="106.708"
   style="fill:#BE892D;"
   width="1.381"
   height="5.112"
   id="rect91" />
						</g>
						<g
   id="g93">
							<rect
   x="253.917"
   y="87.074"
   style="fill:#BE892D;"
   width="1.381"
   height="5.113"
   id="rect92" />
							<rect
   x="259.275"
   y="87.074"
   style="fill:#BE892D;"
   width="1.381"
   height="5.113"
   id="rect93" />
						</g>
					</g>
					<g
   id="g96">
						<g
   id="g95">
							<polygon
   style="fill:#AA7A26;"
   points="263.391,106.874 250.747,92.352 251.619,92.021 264.261,106.544        "
   id="polygon94" />
						</g>
						<rect
   x="249.589"
   y="106.12"
   style="fill:#BE892D;"
   width="16.328"
   height="1.178"
   id="rect95" />
						<rect
   x="249.589"
   y="91.6"
   style="fill:#BE892D;"
   width="16.328"
   height="1.177"
   id="rect96" />
					</g>
					<g
   id="g97">
						<rect
   x="249.589"
   y="86.316"
   style="fill:#BE892D;"
   width="16.328"
   height="1.177"
   id="rect97" />
					</g>
				</g>
				<rect
   x="248.083"
   y="83.907"
   style="fill:#DFAF36;"
   width="3.349"
   height="313.057"
   id="rect98" />
				<rect
   x="263.49"
   y="83.907"
   style="fill:#DFAF36;"
   width="3.35"
   height="313.057"
   id="rect99" />
				<rect
   x="245.279"
   y="80.775"
   style="fill:#B38E28;"
   width="23.544"
   height="6.263"
   id="rect100" />
				<rect
   x="245.279"
   y="84.494"
   style="fill:#B38E28;"
   width="23.544"
   height="2.544"
   id="rect101" />
			</g>
			<g
   id="g142">
				<rect
   x="234.909"
   y="86.316"
   style="fill:#B38E28;"
   width="40.471"
   height="8.141"
   id="rect102" />
				<rect
   x="234.909"
   y="86.316"
   style="fill:#5D4B0A;"
   width="40.471"
   height="4.071"
   id="rect103" />
				<g
   id="g141">
					
						<rect
   x="58.405"
   y="44.467"
   transform="matrix(0.938 -0.3466 0.3466 0.938 -5.741 58.5083)"
   style="fill:#5A5B5D;"
   width="204.6"
   height="1.675"
   id="rect104" />
					<polygon
   style="fill:#5A5B5D;"
   points="322.999,81.348 257.146,11.01 189.265,73.107 188.134,71.87 257.236,8.656        324.221,80.204      "
   id="polygon104" />
					<g
   id="g106">
						
							<rect
   x="262.474"
   y="78.553"
   transform="matrix(0.5661 -0.8243 0.8243 0.5661 52.2953 257.128)"
   style="fill:#DC9134;"
   width="15.847"
   height="0.67"
   id="rect105" />
						
							<rect
   x="269.025"
   y="68.172"
   transform="matrix(0.8537 -0.5208 0.5208 0.8537 -1.1881 151.6934)"
   style="fill:#DC9134;"
   width="0.67"
   height="19.578"
   id="rect106" />
					</g>
					<path
   style="fill:#DC9134;"
   d="M324.448,87.153H63.915v-7.159l0.781-0.053l173.609-11.608l26.118,0.017l60.025,11.737V87.153z        M65.589,85.481h257.184v-4.016L264.18,70.008h-25.82L65.589,81.56V85.481z"
   id="path106" />
					<g
   id="g113">
						<path
   style="fill:#B38E28;"
   d="M265.916,84.576c-0.335,0-0.624-0.251-0.664-0.592L257,12.7l-8.252,71.284        c-0.042,0.368-0.376,0.63-0.742,0.588c-0.368-0.043-0.631-0.374-0.588-0.742l8.917-77.031        c0.039-0.338,0.325-0.594,0.665-0.594c0.34,0,0.626,0.256,0.666,0.594l8.917,77.031c0.043,0.368-0.221,0.699-0.588,0.742        C265.968,84.576,265.942,84.576,265.916,84.576z"
   id="path107" />
						<path
   style="fill:#B38E28;"
   d="M264.093,68.814h-14.185c-0.37,0-0.67-0.299-0.67-0.67c0-0.368,0.301-0.67,0.67-0.67h14.185        c0.369,0,0.669,0.302,0.669,0.67C264.762,68.516,264.462,68.814,264.093,68.814z"
   id="path108" />
						<path
   style="fill:#B38E28;"
   d="M262.198,51.922h-10.015c-0.371,0-0.67-0.3-0.67-0.67c0-0.37,0.299-0.67,0.67-0.67h10.015        c0.37,0,0.67,0.3,0.67,0.67C262.868,51.622,262.568,51.922,262.198,51.922z"
   id="path109" />
						<path
   style="fill:#B38E28;"
   d="M252.856,51.922c-0.072,0-0.145-0.01-0.216-0.037c-0.35-0.118-0.537-0.5-0.418-0.849        l6.927-20.344c0.119-0.349,0.499-0.537,0.85-0.418c0.351,0.119,0.537,0.498,0.419,0.851l-6.926,20.343        C253.395,51.748,253.135,51.922,252.856,51.922z"
   id="path110" />
						<path
   style="fill:#B38E28;"
   d="M261.396,51.922c-0.275,0-0.534-0.171-0.631-0.447l-7.178-20.342        c-0.124-0.351,0.059-0.733,0.408-0.857c0.349-0.123,0.731,0.061,0.854,0.408l7.179,20.346c0.122,0.347-0.06,0.729-0.409,0.853        C261.546,51.91,261.471,51.922,261.396,51.922z"
   id="path111" />
						<path
   style="fill:#B38E28;"
   d="M264.093,68.814c-0.208,0-0.413-0.097-0.544-0.28l-11.91-16.557        c-0.215-0.299-0.147-0.718,0.153-0.935c0.301-0.216,0.719-0.146,0.935,0.152l11.909,16.558c0.216,0.3,0.147,0.719-0.152,0.935        C264.365,68.773,264.229,68.814,264.093,68.814z"
   id="path112" />
						<path
   style="fill:#B38E28;"
   d="M250.26,68.814c-0.13,0-0.261-0.039-0.377-0.118c-0.306-0.206-0.384-0.624-0.175-0.929        l11.136-16.307c0.208-0.306,0.626-0.385,0.931-0.176c0.306,0.208,0.384,0.627,0.176,0.93l-11.137,16.308        C250.684,68.712,250.474,68.814,250.26,68.814z"
   id="path113" />
					</g>
					<g
   id="g114">
						<rect
   x="238.599"
   y="83.869"
   style="fill:#473901;"
   width="14.262"
   height="2.447"
   id="rect113" />
					</g>
					<g
   id="g115">
						<rect
   x="237.074"
   y="68.145"
   style="fill:#DFAF36;"
   width="16.411"
   height="17.278"
   id="rect114" />
						<rect
   x="238.332"
   y="69.171"
   style="fill:#E2C534;"
   width="13.851"
   height="15.323"
   id="rect115" />
					</g>
					<rect
   x="83.133"
   y="79.49"
   style="fill:#DC9134;"
   width="1.675"
   height="6.275"
   id="rect116" />
					<rect
   x="103.229"
   y="77.743"
   style="fill:#DC9134;"
   width="1.674"
   height="8.023"
   id="rect117" />
					<rect
   x="129.464"
   y="76.364"
   style="fill:#DC9134;"
   width="1.674"
   height="9.401"
   id="rect118" />
					<rect
   x="181.824"
   y="72.857"
   style="fill:#DC9134;"
   width="1.674"
   height="12.908"
   id="rect119" />
					<rect
   x="217.661"
   y="70.497"
   style="fill:#DC9134;"
   width="1.674"
   height="15.269"
   id="rect120" />
					<rect
   x="274.039"
   y="71.048"
   style="fill:#DC9134;"
   width="1.675"
   height="15.269"
   id="rect121" />
					<rect
   x="292.461"
   y="74.849"
   style="fill:#DC9134;"
   width="1.674"
   height="11.468"
   id="rect122" />
					<g
   id="g123">
						
							<rect
   x="292.468"
   y="82.164"
   transform="matrix(0.9093 -0.4161 0.4161 0.9093 -6.9729 133.0009)"
   style="fill:#DC9134;"
   width="18.405"
   height="0.67"
   id="rect123" />
						<polygon
   style="fill:#DC9134;"
   points="310.379,86.087 293.126,75.821 293.469,75.246 309.709,84.909 309.709,78.683         310.379,78.683       "
   id="polygon123" />
					</g>
					
						<rect
   x="316.826"
   y="75.006"
   transform="matrix(0.5094 -0.8605 0.8605 0.5094 84.6118 313.4075)"
   style="fill:#DC9134;"
   width="0.671"
   height="14.987"
   id="rect124" />
					
						<rect
   x="310.144"
   y="83.212"
   transform="matrix(0.9185 -0.3955 0.3955 0.9185 -7.1825 132.2527)"
   style="fill:#DC9134;"
   width="14.036"
   height="0.669"
   id="rect125" />
					<g
   id="g126">
						<polygon
   style="fill:#DC9134;"
   points="292.755,86.028 275.172,72.112 275.587,71.587 293.171,85.504       "
   id="polygon125" />
						
							<rect
   x="273.552"
   y="80.316"
   transform="matrix(0.8743 -0.4854 0.4854 0.8743 -3.4383 148.0222)"
   style="fill:#DC9134;"
   width="21.072"
   height="0.669"
   id="rect126" />
					</g>
					
						<rect
   x="200.189"
   y="61.073"
   transform="matrix(0.3356 -0.942 0.942 0.3356 58.2865 241.7594)"
   style="fill:#DC9134;"
   width="0.669"
   height="36.977"
   id="rect127" />
					
						<rect
   x="181.606"
   y="78.539"
   transform="matrix(0.9217 -0.388 0.388 0.9217 -14.8723 84.0883)"
   style="fill:#DC9134;"
   width="38.393"
   height="0.67"
   id="rect128" />
					
						<rect
   x="228.071"
   y="66.46"
   transform="matrix(0.6246 -0.781 0.781 0.6246 24.2981 207.9124)"
   style="fill:#DC9134;"
   width="0.67"
   height="24.445"
   id="rect129" />
					
						<rect
   x="215.9"
   y="77.35"
   transform="matrix(0.7629 -0.6465 0.6465 0.7629 3.9263 166.0781)"
   style="fill:#DC9134;"
   width="25.013"
   height="0.671"
   id="rect130" />
					
						<rect
   x="167.869"
   y="65.839"
   transform="matrix(0.3454 -0.9385 0.9385 0.3454 34.4191 210.6445)"
   style="fill:#DC9134;"
   width="0.67"
   height="29.622"
   id="rect131" />
					
						<rect
   x="152.686"
   y="79.226"
   transform="matrix(0.9181 -0.3963 0.3963 0.9181 -17.7487 73.2205)"
   style="fill:#DC9134;"
   width="31.26"
   height="0.671"
   id="rect132" />
					
						<rect
   x="141.828"
   y="69.145"
   transform="matrix(0.3675 -0.93 0.93 0.3675 14.3037 183.6308)"
   style="fill:#DC9134;"
   width="0.671"
   height="24.308"
   id="rect133" />
					<rect
   x="153.467"
   y="74.849"
   style="fill:#DC9134;"
   width="1.675"
   height="11.468"
   id="rect134" />
					
						<rect
   x="129.848"
   y="81.006"
   transform="matrix(0.9208 -0.3899 0.3899 0.9208 -20.4307 62.0334)"
   style="fill:#DC9134;"
   width="25.469"
   height="0.67"
   id="rect135" />
					
						<rect
   x="117.1"
   y="69.202"
   transform="matrix(0.2778 -0.9606 0.9606 0.2778 5.4642 172.4599)"
   style="fill:#DC9134;"
   width="0.67"
   height="26.788"
   id="rect136" />
					
						<rect
   x="104.01"
   y="81.215"
   transform="matrix(0.9321 -0.3621 0.3621 0.9321 -21.5793 47.9657)"
   style="fill:#DC9134;"
   width="26.32"
   height="0.671"
   id="rect137" />
					
						<rect
   x="93.432"
   y="72.893"
   transform="matrix(0.3362 -0.9418 0.9418 0.3362 -15.8708 143.361)"
   style="fill:#DC9134;"
   width="0.67"
   height="20.093"
   id="rect138" />
					
						<rect
   x="83.211"
   y="81.954"
   transform="matrix(0.9306 -0.3659 0.3659 0.9306 -23.5728 40.2017)"
   style="fill:#DC9134;"
   width="22.117"
   height="0.669"
   id="rect139" />
					
						<rect
   x="73.881"
   y="74.715"
   transform="matrix(0.2926 -0.9562 0.9562 0.2926 -27.5291 130.1675)"
   style="fill:#DC9134;"
   width="0.67"
   height="17.951"
   id="rect140" />
					
						<rect
   x="64.164"
   y="82.57"
   transform="matrix(0.9423 -0.3347 0.3347 0.9423 -23.4604 29.6721)"
   style="fill:#DC9134;"
   width="20.395"
   height="0.67"
   id="rect141" />
				</g>
			</g>
			<rect
   x="254.224"
   y="8.656"
   style="fill:#473901;"
   width="5.907"
   height="5.906"
   id="rect142" />
			<path
   style="fill:#B38E28;"
   d="M258.916,11.609c0,0.989-0.8,1.789-1.788,1.789c-0.987,0-1.789-0.8-1.789-1.789     c0-0.987,0.801-1.788,1.789-1.788C258.116,9.821,258.916,10.622,258.916,11.609z"
   id="path142" />
		</g>
		<g
   id="g145">
			<path
   style="fill:#E2C534;"
   d="M70.373,83.69c0,2.672-2.166,4.839-4.838,4.839c-2.672,0-4.837-2.167-4.837-4.839     c0-2.671,2.165-4.837,4.837-4.837C68.207,78.854,70.373,81.02,70.373,83.69z"
   id="path143" />
			<path
   style="fill:#633F02;"
   d="M68.991,83.69c0,1.91-1.547,3.457-3.456,3.457c-1.909,0-3.456-1.547-3.456-3.457     c0-1.909,1.547-3.456,3.456-3.456C67.444,80.234,68.991,81.781,68.991,83.69z"
   id="path144" />
			<path
   style="fill:#DC9134;"
   d="M67.644,83.69c0,1.164-0.944,2.108-2.109,2.108c-1.164,0-2.108-0.944-2.108-2.108     c0-1.165,0.944-2.108,2.108-2.108C66.7,81.582,67.644,82.525,67.644,83.69z"
   id="path145" />
		</g>
		<rect
   x="245.73"
   y="94.457"
   style="fill:#231F20;"
   width="24.667"
   height="5.958"
   id="rect145" />
		<g
   id="g150">
			<g
   id="g147">
				<rect
   x="235.589"
   y="388.382"
   style="fill:#5A5B5D;"
   width="43.832"
   height="13.119"
   id="rect146" />
				<rect
   x="235.589"
   y="388.382"
   style="fill:#333536;"
   width="43.832"
   height="2.817"
   id="rect147" />
			</g>
			<g
   id="g149">
				<rect
   x="222.901"
   y="399.098"
   style="fill:#5A5B5D;"
   width="69.208"
   height="8.401"
   id="rect148" />
				<rect
   x="222.901"
   y="399.098"
   style="fill:#333536;"
   width="69.208"
   height="1.806"
   id="rect149" />
			</g>
		</g>
	</g>
	
</g>
</svg>
