<svg width="50" height="76" viewBox="0 0 50 76" fill="none" xmlns="http://www.w3.org/2000/svg">
<path d="M16.2762 0C16.2856 1.55947 16.3011 3.11894 16.3031 4.67807C16.3075 7.8833 16.3132 11.0889 16.2947 14.2941C16.2924 14.7014 16.4211 14.8673 16.8051 14.9657C17.624 15.1789 18.4274 15.451 19.2425 15.6796C19.5627 15.7696 19.7422 15.9483 19.8225 16.269C19.9905 16.9338 20.1356 17.6085 20.3705 18.2502C20.4901 18.5766 20.7831 18.8395 21.015 19.1545C21.1054 18.9641 21.1658 18.8187 21.2414 18.6804C21.4793 18.2468 21.858 18.0178 22.3389 18.1118C22.8899 18.2193 23.4608 18.3365 23.954 18.5857C24.2954 18.7576 24.5202 19.1602 24.8122 19.4762C25.2238 18.8698 25.832 18.856 26.5477 19.1478C26.5595 18.9836 26.5759 18.8573 26.5759 18.7311C26.5822 13.806 26.5852 8.88085 26.585 3.95575C26.5814 3.73933 26.5237 3.52728 26.417 3.33889C26.1442 2.86507 26.1146 2.35901 26.1512 1.84019C26.1737 1.52622 26.5837 1.37277 26.8568 1.55981C26.9442 1.61958 27.0289 1.70621 27.1256 1.72602C27.6633 1.83516 27.668 1.82945 27.667 2.38654C27.6649 3.52827 27.6639 4.67 27.6478 5.81173C27.6444 6.04243 27.7251 6.165 27.9287 6.26272C31.6696 8.0568 35.4095 9.85412 39.1484 11.6547C39.2001 11.6795 39.2573 11.6936 39.3604 11.7296C39.3604 11.1191 39.3604 10.5469 39.3604 9.97468C39.3604 9.52941 39.4589 9.40382 39.7902 9.40382C40.1558 9.40382 40.2959 9.56736 40.2942 10.0059C40.2942 14.1699 40.2962 18.3321 40.2781 22.4954C40.2761 22.9145 40.3584 23.1402 40.809 23.2191C41.3714 23.3175 41.6681 23.7446 41.7636 24.2695C41.8484 24.7647 41.8916 25.2661 41.8929 25.7685C41.905 26.7873 41.8724 27.8068 41.8751 28.826C41.8802 30.686 41.8973 32.546 41.9107 34.406C41.9107 34.4899 41.9228 34.5739 41.9306 34.6706C42.1947 34.6968 42.4473 34.7297 42.701 34.7452C43.0004 34.7633 43.1872 34.8879 43.2084 35.2079C43.2373 35.6424 43.2722 36.0763 43.3072 36.5487C44.0404 36.5131 44.7856 36.4745 45.5302 36.441C46.585 36.3933 47.6397 36.3358 48.6954 36.3103C49.1847 36.2982 49.224 36.362 49.2226 36.8399C49.2036 44.8096 49.1835 52.7793 49.1625 60.749C49.1585 62.3451 49.146 63.9415 49.1561 65.5372C49.1585 65.8771 49.06 66.0369 48.7159 65.9456C48.1484 65.7951 47.5782 65.6487 47.0211 65.464C45.6582 65.0124 44.3045 64.5335 42.9406 64.0846C42.7776 64.0308 42.5653 64.0597 42.3946 64.1114C41.9978 64.232 41.6483 64.1517 41.2797 63.925C41.2749 63.9944 41.2749 64.0639 41.2797 64.1333C41.3624 64.69 41.2663 64.8028 40.7085 64.9261C40.3003 65.0167 39.9279 65.2249 39.4726 65.1071C38.9465 64.9704 38.9014 64.9597 38.8645 64.4126C38.8598 64.3414 38.8453 64.2709 38.8309 64.1702C38.0177 64.4724 37.2254 64.7619 36.4378 65.0644C36.3673 65.0916 36.3115 65.193 36.2785 65.2723C36.2523 65.3354 36.2708 65.4174 36.2698 65.4912C36.2584 66.2243 35.9261 66.5786 35.1737 66.5235C34.6849 66.4876 34.2074 66.3089 33.7222 66.2055C33.6096 66.1813 33.4752 66.1719 33.3714 66.2092C32.5767 66.502 31.7834 66.7995 31.0005 67.1216C30.8973 67.1639 30.7989 67.3502 30.7922 67.4741C30.7546 68.3409 30.7603 68.3351 29.9397 68.6495C29.3574 68.8731 28.8047 68.6209 28.2399 68.5682C28.1999 68.5645 28.1676 68.5051 28.1276 68.4769C28.0396 68.4144 27.9492 68.3553 27.8588 68.2952C27.8165 68.4097 27.7419 68.5229 27.7375 68.6387C27.7244 68.9695 27.7335 69.3019 27.7456 69.633C27.7563 69.9352 27.6199 70.1109 27.3353 70.2039C26.9771 70.3191 26.6297 70.4651 26.2702 70.577C25.5286 70.8073 25.0605 70.4225 25.1277 69.6522C25.1351 69.5699 25.1466 69.4883 25.1654 69.3237C24.2245 69.6565 23.3365 69.9618 22.4588 70.2919C22.358 70.3295 22.2626 70.5007 22.2488 70.6199C22.2152 70.899 22.2404 71.1838 22.2333 71.4662C22.2219 71.9386 22.0842 72.0451 21.6087 71.9605C21.5136 71.9433 21.4178 71.9299 21.3261 71.9155C21.1658 72.3359 20.8053 72.5102 20.138 72.4457C19.3924 72.3742 18.6505 72.2667 17.9065 72.1771C17.3844 72.1149 16.8612 72.0582 16.3065 71.9951V75.4548C16.0007 75.4548 15.7191 75.4824 15.449 75.439C15.3626 75.4249 15.2474 75.2238 15.2474 75.1063C15.2299 74.1734 15.2363 73.2399 15.2353 72.3064V71.8698L12.1084 71.4668V75.4548C11.6302 75.4548 11.2011 75.4723 10.7761 75.4434C10.6598 75.4354 10.5264 75.3091 10.4468 75.201C9.7002 74.1959 8.96367 73.1828 8.22344 72.1727C8.09374 71.9957 7.96001 71.8221 7.79503 71.6018C7.62702 71.946 7.47279 72.2483 7.33099 72.5562C6.93081 73.4256 6.52961 74.2946 6.14252 75.1697C6.05079 75.3773 5.93924 75.4676 5.70337 75.4585C5.2259 75.4397 4.74674 75.4528 4.22794 75.4528C4.21954 75.3004 4.20678 75.1701 4.20611 75.0398C4.20207 73.6398 4.194 72.2399 4.20172 70.8399C4.2034 70.5807 4.13453 70.4789 3.86035 70.4507C2.77336 70.3389 1.68906 70.1999 0.603748 70.0706C0.115191 70.0122 0.0264703 69.9097 0.0268063 69.4097C0.0290463 60.6166 0.0309642 51.8236 0.0325322 43.0308C0.0325322 40.4028 0.010349 37.7748 0.000604749 35.1468C-0.00141131 34.6368 0.00161343 34.1266 0.00967766 33.6162C0.0147178 33.325 0.184741 33.2031 0.465309 33.2132C0.858104 33.229 1.25089 33.2468 1.64369 33.2576C1.84933 33.2636 2.05531 33.2576 2.28951 33.2576V30.5856C2.0207 30.5654 1.76667 30.5443 1.5113 30.5275C1.25594 30.5107 1.19815 30.3518 1.20017 30.1245C1.20218 29.8821 1.34902 29.8418 1.53819 29.8401C1.78079 29.8384 2.02305 29.8401 2.31672 29.8401V29.3491C2.31672 26.8313 2.31762 24.3137 2.31942 21.7963C2.3141 21.5508 2.32533 21.3052 2.35302 21.0612C2.47566 20.1743 3.00923 19.633 3.84019 19.3671C4.08312 19.2895 4.18022 19.1743 4.17989 18.9003C4.1716 12.6006 4.16982 6.301 4.17452 0.00134452H5.20673V1.92481L5.35357 1.95839L6.60756 0.00167245H7.5662C7.16299 0.630966 6.75978 1.25993 6.31389 1.95336L11.0321 1.26295V0H12.0643C12.0832 0.280731 12.0885 0.563141 12.1279 0.839506C12.144 0.953343 12.2068 1.11587 12.2942 1.15516C13.2532 1.587 14.2215 1.99904 15.2349 2.43726V0H16.2762ZM1.39101 53.7556V60.0015L18.6619 61.5126V54.7603L1.39101 53.7556ZM1.38899 49.1521L18.6706 49.8892V43.3185L1.38899 43.0895V49.1521ZM1.3759 42.3353L18.6716 42.5314V36.0726L1.3759 36.3627V42.3353ZM1.38463 66.6101L18.6471 68.547C18.6607 68.471 18.6702 68.3944 18.6757 68.3174C18.6807 66.4033 18.6804 64.4892 18.6925 62.5751C18.6942 62.3253 18.5611 62.3021 18.3736 62.2857C16.7107 62.1386 15.0471 61.9834 13.3852 61.8377C10.071 61.5467 6.75686 61.2563 3.44268 60.9666C2.76327 60.9075 2.08353 60.8545 1.38463 60.7967V66.6101ZM38.7979 50.7958L28.0299 50.319V54.8937L38.7979 55.5861V50.7958ZM22.4208 67.5695C22.8321 67.4221 23.2031 67.2522 23.5922 67.1598C23.9722 67.0702 24.0834 66.8912 24.0831 66.5013C24.0744 57.0975 24.0744 47.6935 24.0831 38.2892V37.8664L22.4208 37.757V67.5695ZM38.8151 42.6194L28.049 42.4998V46.8737L38.8151 47.2014V42.6194ZM38.7738 60.6493V56.2899L28.005 55.5753C28.005 56.8131 28.005 58.0015 28.005 59.1899C28.005 59.7369 28.005 59.7383 28.5325 59.7943C28.7277 59.8148 28.924 59.8279 29.1199 59.8424L34.954 60.3299C36.2123 60.4347 37.4704 60.5415 38.7734 60.6516L38.7738 60.6493ZM28.0325 41.8803H38.8057V37.8211L28.0325 37.9769V41.8803ZM48.0493 52.8251L40.5694 51.54V56.6751L48.0493 58.6331V52.8251ZM40.5381 57.3551C40.5381 59.0311 40.5331 60.6382 40.5509 62.245C40.5509 62.3458 40.7169 62.4972 40.8352 62.5365C43.1297 63.2977 45.4268 64.0519 47.7267 64.7991C47.8137 64.8277 47.9058 64.8398 48.0291 64.8663V59.3175L40.5381 57.3551ZM40.556 42.925C40.556 44.5251 40.559 46.0583 40.5529 47.5926C40.5529 47.8468 40.7297 47.8136 40.8795 47.8327C42.3779 48.0241 43.8762 48.2144 45.3743 48.4036C46.26 48.5137 47.1474 48.6141 48.0624 48.7223V43.1929L40.556 42.925ZM48.0765 42.52V37.0857L40.5902 37.4289V42.2708L48.0765 42.52ZM27.6397 30.4647V36.4903L33.7266 36.764V31.3274L27.6397 30.4647ZM33.7262 30.6873C33.7376 30.5866 33.7477 30.5402 33.7477 30.4925C33.7507 28.837 33.7477 27.1815 33.7598 25.5257C33.7615 25.3004 33.6691 25.2399 33.4732 25.1953C31.8835 24.8339 30.2962 24.4615 28.7079 24.0938C28.3581 24.0129 28.007 23.937 27.6125 23.8494C27.6125 25.8011 27.6155 27.6883 27.6088 29.5751C27.6088 29.8035 27.7365 29.8253 27.9072 29.8498C28.8783 29.9895 29.8477 30.1379 30.8187 30.278C31.7764 30.4143 32.7347 30.5459 33.7262 30.6853V30.6873ZM18.6861 51.3056L1.40412 50.5V52.4017L18.6871 53.3701L18.6861 51.3056ZM27.6179 13.4879C27.6179 13.6635 27.6179 13.7938 27.6179 13.9244C27.6179 15.5927 27.6236 17.2609 27.6058 18.9279C27.6024 19.2391 27.6922 19.3738 27.9963 19.4577C29.6504 19.9158 31.2982 20.396 32.9484 20.8681C33.202 20.9406 33.4564 21.0115 33.7524 21.0951C33.7524 19.3469 33.7568 17.6552 33.741 15.9637C33.741 15.8704 33.5885 15.736 33.4789 15.6934C32.4275 15.2851 31.3701 14.8915 30.314 14.4953C29.433 14.1638 28.551 13.8351 27.6179 13.4858V13.4879ZM20.4273 71.3913V70.5642C20.4242 62.5448 20.4208 54.5256 20.4172 46.5066C20.415 42.7244 20.4098 38.9422 20.4018 35.1602C20.4018 34.7025 20.4132 34.2448 20.4192 33.7784H20.019C20.019 33.9345 20.019 34.0672 20.019 34.1998C19.9841 43.8154 19.9493 53.4306 19.9146 63.0453C19.9072 65.1329 19.9068 67.2206 19.9014 69.3083C19.9014 70.0266 19.7556 70.1623 19.0493 70.1209C18.9633 70.1159 18.8776 70.1075 18.7923 70.0971C17.1714 69.8983 15.5503 69.6992 13.9292 69.4997C10.7707 69.1142 7.61324 68.7298 4.45677 68.3466L1.18671 67.949V69.0356L2.67557 69.216C2.67994 68.8634 2.80729 68.6723 3.14599 68.7122C3.93897 68.8036 4.73364 68.8825 5.52292 68.9997C5.67279 69.0219 5.90228 69.1824 5.91841 69.3019C5.96041 69.6146 6.14992 69.6192 6.37471 69.6471C7.86122 69.8318 9.34705 70.0246 10.8339 70.2096C11.8419 70.3348 12.852 70.4517 13.9013 70.5773C13.8748 70.0736 14.1701 70.0353 14.5334 70.081C15.3131 70.1786 16.0936 70.2725 16.8747 70.3627C17.1374 70.3933 17.291 70.5212 17.3612 70.7868C17.3864 70.8822 17.5158 71.0044 17.6119 71.0185C18.5312 71.1508 19.4549 71.264 20.4263 71.3893L20.4273 71.3913ZM33.7548 15.091C33.7548 13.4096 33.7595 11.8021 33.7434 10.195C33.7434 10.0959 33.5958 9.95689 33.485 9.90585C31.6353 9.05268 29.7826 8.20634 27.9267 7.36683C27.8434 7.32889 27.7523 7.30773 27.6203 7.26407C27.6203 9.00252 27.6287 10.6953 27.6125 12.3881C27.6095 12.687 27.7103 12.8193 27.9821 12.9197C29.6622 13.5433 31.3352 14.1833 33.0112 14.817C33.236 14.9009 33.4645 14.9825 33.7538 15.0889L33.7548 15.091ZM17.295 26.5956V20.0736C16.3488 19.8123 15.3962 19.5793 14.4651 19.2801C13.945 19.1122 13.4571 19.1834 12.9491 19.2606V26.8229L17.295 26.5956ZM8.05945 27.0529C8.21402 27.0529 8.34641 27.0586 8.47779 27.0529C9.49624 27.0019 10.5137 26.9347 11.5325 26.9042C11.846 26.8944 11.9148 26.7866 11.9135 26.4935C11.9024 24.2221 11.9078 21.9507 11.9064 19.6794C11.9064 19.5729 11.8937 19.4668 11.89 19.4067C10.5032 19.125 9.36216 20.0112 8.05945 20.0555V27.0529ZM38.2331 62.8831V62.7887L27.545 61.6977C27.545 62.4814 27.545 63.2397 27.545 63.9983C27.545 64.9006 27.4442 65.8139 27.8911 66.6847L38.2331 62.8831ZM39.4357 31.5003C39.4579 31.4093 39.4784 31.3633 39.4784 31.3173C39.4804 29.8213 39.476 28.3256 39.4847 26.8296C39.4847 26.6093 39.3638 26.5687 39.1985 26.5297C38.5899 26.3867 37.9838 26.2346 37.3753 26.0932C36.4009 25.8662 35.4244 25.6452 34.4285 25.4169V30.7847L39.4357 31.5003ZM34.4214 36.804L39.4636 37.035V32.1491L34.4214 31.4237V36.804ZM34.4134 16.0433C34.4134 17.7559 34.4083 19.4128 34.4258 21.0686C34.4258 21.1673 34.5918 21.3194 34.708 21.3537C36.1791 21.7865 37.6548 22.2026 39.1299 22.6213C39.2307 22.6499 39.3345 22.665 39.4397 22.6885C39.452 22.6424 39.4608 22.5955 39.4663 22.5481C39.4723 21.333 39.4776 20.1179 39.4821 18.903C39.4854 17.992 39.4868 17.9856 38.6276 17.6541C37.2446 17.1202 35.8582 16.5957 34.4134 16.0446V16.0433ZM39.4387 17.2566C39.4511 17.1912 39.46 17.1253 39.4656 17.0591C39.4683 15.684 39.4622 14.3092 39.478 12.9344C39.4814 12.6715 39.3268 12.6037 39.1461 12.5204C37.6304 11.8226 36.115 11.1242 34.5998 10.4253C34.5491 10.4022 34.4903 10.3968 34.407 10.376C34.407 11.9855 34.4026 13.5661 34.4177 15.1494C34.4177 15.2501 34.5541 15.3965 34.6607 15.4405C35.2047 15.6652 35.7601 15.8626 36.3111 16.0708C37.342 16.4624 38.3722 16.8536 39.4404 17.2579L39.4387 17.2566ZM12.9353 32.9513L17.2769 32.8267V27.3434L12.9353 27.5734V32.9513ZM11.8856 33.0255V27.6147L8.08398 27.8115V33.0255H11.8856ZM26.1935 69.7398V33.5578H25.6879V69.6589L26.1935 69.7398ZM39.474 25.3561C39.474 25.0673 39.4763 24.8363 39.474 24.6053C39.4653 23.888 39.5036 24.0367 38.9149 23.8749C35.5212 22.9418 32.1256 22.0154 28.7281 21.0958C28.3692 20.9984 28.0053 20.9178 27.6038 20.8194C27.6038 21.2842 27.6223 21.6888 27.5977 22.0908C27.5799 22.3799 27.6888 22.4897 27.9647 22.5545C30.0179 23.0387 32.0691 23.5322 34.1183 24.0347C35.8787 24.4642 37.639 24.9031 39.474 25.3561ZM38.802 48.278L27.9092 47.9049C27.9092 48.237 27.9311 48.5298 27.9039 48.8183C27.8702 49.1877 28.0087 49.2921 28.3776 49.3056C31.1483 49.408 33.9184 49.5406 36.6892 49.6484C37.3837 49.6756 38.0799 49.6524 38.802 49.6524V48.278ZM18.8474 33.9056L2.53815 34.3492V35.0504L18.8474 34.7364V33.9056ZM40.2421 48.9318C40.2421 49.2915 40.2549 49.5967 40.2384 49.9006C40.223 50.1857 40.3244 50.3093 40.6208 50.3556C42.4033 50.6343 44.1825 50.9342 45.9633 51.2237C46.5987 51.3271 47.2358 51.4214 47.892 51.5229V49.9798L40.2421 48.9318ZM5.39759 13.1299L5.29074 13.1809V19.0605L6.90124 18.9158C6.90124 18.7435 6.90124 18.6108 6.90124 18.4792C6.90796 17.7421 6.97583 17.6632 7.7117 17.6014C8.14179 17.5655 8.57355 17.5494 9.08193 17.5198L5.39759 13.1299ZM9.75228 6.92324C9.18946 7.74159 8.65117 8.51629 8.12665 9.29971C8.07894 9.37124 8.08433 9.51698 8.12331 9.60194C8.36523 10.1244 8.62932 10.6369 8.87495 11.158C8.98684 11.3955 9.15855 11.466 9.40854 11.4331C9.85846 11.3736 10.3094 11.3159 10.762 11.2836C10.9938 11.2672 11.0402 11.1644 11.0385 10.9576C11.0318 10.2091 11.0432 9.46056 11.0405 8.71206C11.0405 8.60695 11.0328 8.477 10.9733 8.40144C10.5846 7.91352 10.1807 7.43837 9.75228 6.92358V6.92324ZM10.9955 16.9886V13.7289C10.261 13.8196 9.5416 14.0036 8.83329 13.968C8.14279 13.9328 7.46337 13.6729 6.70769 13.4949C7.49764 14.455 8.29769 15.3233 8.97139 16.2821C9.4754 16.996 10.0261 17.2955 10.8611 17.0208C10.8833 17.0131 10.9075 17.0094 10.9945 16.9889L10.9955 16.9886ZM15.2245 5.41011C15.1472 5.45813 15.1193 5.46552 15.1086 5.48332C14.3714 6.69758 13.6302 7.90983 12.9094 9.13316C12.862 9.21341 12.9185 9.40885 12.9917 9.49751C13.6231 10.2631 14.2686 11.0173 14.9127 11.7722C14.992 11.8649 15.0898 11.9401 15.2245 12.0691V5.41011ZM12.1494 3.7583C12.0049 4.84261 12.0879 8.38701 12.2757 8.63752L14.6053 4.79358L12.1494 3.7583ZM5.2847 11.8293L5.36567 11.8572C5.90328 11.0963 6.43216 10.331 6.97851 9.5771C7.11796 9.38434 7.13409 9.22886 7.0306 9.01092C6.48862 7.87154 5.96411 6.72377 5.43119 5.58003C5.40499 5.52429 5.3576 5.4793 5.28536 5.38091L5.2847 11.8293ZM26.584 24.4555C26.584 23.0139 26.584 21.6052 26.581 20.1965C26.5806 20.1259 26.5533 20.058 26.5047 20.0068C25.9725 19.5541 25.4369 19.7321 25.284 20.4081C25.2614 20.491 25.247 20.5759 25.241 20.6616C25.2219 21.5555 25.205 22.4496 25.1902 23.344C25.1859 23.6093 25.1902 23.8749 25.1902 24.1277L26.584 24.4555ZM6.00745 4.99977C6.54977 6.16735 7.09209 7.33494 7.66062 8.55928L9.27347 6.21504C8.16732 5.74659 7.09074 5.39434 6.00745 4.99977ZM4.1762 20.2089C3.96821 20.3708 3.77299 20.444 3.72662 20.574C3.6023 20.9135 3.48569 21.2748 3.47359 21.6311C3.46318 21.9272 3.7125 22.2533 3.65135 22.5213C3.58112 22.8295 3.44638 23.117 3.4531 23.4541C3.47864 24.7178 3.48234 25.9821 3.49478 27.2769L4.1762 27.2148V20.2089ZM21.5778 39.5129H21.4841V71.3278H21.5778V39.5129ZM21.6174 20.4729C22.0509 20.4705 22.4202 20.18 22.4501 19.8489C22.4753 19.5665 22.613 19.494 22.858 19.5054C23.1325 19.5185 23.2007 19.6834 23.1974 19.9269C23.191 20.4175 23.19 20.9087 23.2021 21.3993C23.2058 21.5411 23.2226 21.7086 23.2995 21.8174C23.6211 22.2724 23.6987 22.7849 23.7108 23.3195C23.7199 23.7224 23.7192 23.7224 24.0975 23.7419C24.0975 22.6287 24.1244 21.5129 24.0878 20.3987C24.0643 19.6841 23.7299 19.1596 22.9487 19.0363C22.7807 19.0101 22.6187 18.942 22.4561 18.8879C22.1836 18.7972 21.982 18.8852 21.9101 19.1565C21.7965 19.5773 21.7179 20.0048 21.6158 20.4735L21.6174 20.4729ZM5.30183 74.9938L5.3707 75.0153L7.29336 70.8812L5.30183 70.6287V74.9938ZM10.9995 74.6563V71.3429L8.33969 71.0041L10.9995 74.6563ZM15.2302 14.7367V13.3287L12.1389 13.6417V15.6148C12.3157 15.0705 12.7085 14.9496 13.2269 14.9325C13.8862 14.9117 14.5421 14.8089 15.2306 14.7367H15.2302ZM38.7391 61.9284C38.8779 61.5217 38.7281 61.4149 38.3769 61.3867C35.5017 61.158 32.6281 60.9112 29.7539 60.6748C29.0291 60.6154 28.3034 60.5741 27.5779 60.5247C27.5641 60.5811 27.5507 60.6376 27.5369 60.6926C27.6434 60.7312 27.7476 60.7934 27.8571 60.8054C30.1145 61.0459 32.3722 61.2827 34.6304 61.516C35.9963 61.6584 37.3625 61.791 38.7395 61.9284H38.7391ZM41.1171 34.585V30.5621H40.3224V34.4459L41.1171 34.585ZM26.5679 28.0231L25.1825 27.7756V29.92L26.5679 29.8317V28.0231ZM22.1967 34.0168V35.1313L24.824 35.3264V34.271C24.1079 34.1961 23.4154 34.1222 22.7226 34.0517C22.5542 34.0349 22.3846 34.0289 22.1967 34.0168ZM6.13547 27.1496C6.35085 25.6301 5.98896 23.9629 5.2867 23.2718V27.1987L6.13547 27.1496ZM4.16141 33.2085V30.7629L3.10264 30.6937V33.2085H4.16141ZM40.3113 29.5842C40.6137 29.6594 40.8194 29.6107 40.8278 29.3088C40.8536 28.3669 40.8883 27.4233 40.8597 26.4824C40.8526 26.2527 40.8083 26.0341 40.8503 25.7923C40.9558 25.1842 40.7448 24.6707 40.3127 24.4008L40.3113 29.5842ZM18.3555 24.2883C18.8071 24.3104 19.0019 24.1338 19.1098 23.7033C19.2879 22.9924 19.2704 22.2996 19.1478 21.5948C19.0708 21.1525 18.8471 20.9739 18.3555 20.9641V24.2883ZM5.29477 3.52391L11.0375 2.6985C11.0295 2.53866 11.0234 2.4218 11.0157 2.26767L5.27394 3.11054C5.28133 3.25493 5.28705 3.37179 5.29477 3.52391ZM7.18046 4.26771L7.18852 4.34394C7.56048 4.49773 7.92943 4.6586 8.30542 4.80165C8.42842 4.84943 8.56057 4.86905 8.69216 4.85907C9.0695 4.82045 9.4445 4.71601 9.82016 4.71534C10.474 4.71534 10.7425 4.2835 11.0352 3.73346L7.18046 4.26771ZM25.1677 33.2663L25.6828 33.0356C25.6741 32.961 25.6684 32.9013 25.6596 32.8412C25.5467 32.0782 25.6213 31.9785 26.3821 31.8112C26.4583 31.7948 26.5638 31.686 26.5696 31.6135C26.5911 31.3253 26.5783 31.0352 26.5783 30.7645H25.167L25.1677 33.2663ZM21.6608 21.7694C21.6608 22.3527 21.6544 22.9152 21.6678 23.4773C21.6699 23.5592 21.7508 23.6912 21.8207 23.7124C22.1588 23.8084 22.5055 23.8742 22.8483 23.9508C23.0791 22.9612 22.8503 21.767 21.6608 21.7694ZM22.8415 32.999C22.8415 32.6568 22.8681 32.3371 22.8365 32.0231C22.7558 31.2269 22.483 31.0053 21.6127 31.0231C21.6127 31.3109 21.6127 31.6017 21.6127 31.8925C21.6094 32.9647 21.6168 32.9728 22.7007 33.0185C22.7481 33.0152 22.7951 33.0087 22.8415 32.999ZM22.3412 35.5648V36.8073L24.1197 36.9238V35.7391L22.3412 35.5648ZM5.27897 30.7931V33.1477H6.1526V30.8979L5.27897 30.7931ZM19.3386 17.8956C19.223 17.54 19.1316 17.2368 19.0224 16.9402C18.9996 16.8781 18.9079 16.7952 18.8528 16.7985C18.2967 16.8321 17.7412 16.8835 17.1704 16.9308C17.2769 17.3338 17.3699 17.6834 17.4654 18.044L19.3386 17.8956ZM26.5645 27.3007V25.7379H25.1936V27.0388L26.5645 27.3007ZM18.3474 32.7918C18.5393 32.7918 18.6868 32.7804 18.8316 32.7945C19.1226 32.8224 19.2711 32.7112 19.2486 32.4083C19.218 31.9959 19.2173 31.5785 19.1478 31.1722C19.0701 30.7128 18.8413 30.559 18.3461 30.5483L18.3474 32.7918ZM4.17183 29.7521V28.2074L3.13591 28.055V29.7521H4.17183ZM22.4114 69.5853C22.781 69.453 23.111 69.3335 23.441 69.2183C24.2343 68.9406 24.235 68.9413 24.1738 68.1102C24.1649 68.0626 24.1527 68.0157 24.1372 67.9698C23.6036 68.1538 23.0737 68.3305 22.5502 68.5245C22.486 68.548 22.4225 68.6636 22.4178 68.7398C22.4017 69.0014 22.4114 69.2677 22.4114 69.5837V69.5853ZM20.0822 32.7001H20.8332V30.8814L19.8867 30.7824C19.9535 31.4382 20.0164 32.0537 20.0822 32.6984V32.7001ZM21.648 27.1164V28.3636L22.8765 28.5671C23.0468 27.4008 23.0468 27.4008 21.9692 27.1815L21.648 27.1164ZM11.012 12.2232L7.61222 12.5876C8.78153 13.2854 9.89709 12.7491 11.012 12.7464V12.2232ZM23.7931 27.5694C23.6348 28.3958 23.4843 29.1812 23.3274 30.0016L24.1547 29.9318C24.1547 29.2558 24.1395 28.6315 24.161 28.0083C24.1718 27.6946 24.0713 27.5476 23.7931 27.5694ZM23.7289 33.1101L24.1295 33.1487V30.8297H23.3791C23.4951 31.591 23.6083 32.3257 23.7289 33.1101ZM18.3592 29.108C18.5887 29.0143 18.8632 28.9882 18.9159 28.8663C19.1404 28.3481 19.2731 27.7981 19.2156 27.2014L18.3592 27.2769V29.108ZM7.55813 10.1506L6.4063 11.7786L8.22511 11.5516C7.99158 11.0613 7.78393 10.6248 7.55813 10.1506ZM12.8728 16.5447C13.4104 16.4876 13.9433 16.4305 14.4749 16.3747C14.9513 16.325 14.9876 16.2841 15.0125 15.7256C14.5256 15.7723 14.0428 15.817 13.5603 15.8653C13.0502 15.917 12.9964 15.9711 12.8728 16.5447ZM6.17311 29.6705C6.17311 29.3088 6.18217 28.9801 6.16571 28.653C6.16201 28.5859 6.07331 28.4777 6.00745 28.4633C5.77224 28.4112 5.52964 28.3918 5.27663 28.3579V29.6705H6.17311ZM12.1353 2.13469L12.0388 2.23543C12.1262 2.34591 12.191 2.50073 12.3049 2.55882C12.6651 2.74217 13.0421 2.89193 13.4138 3.04975C14.0075 3.30093 14.6029 3.54776 15.1976 3.79659L15.2984 3.68778C15.2013 3.57092 15.1274 3.40638 15.0031 3.34527C14.5629 3.12968 14.107 2.94666 13.6547 2.75727C13.151 2.5484 12.6423 2.3439 12.1353 2.13604V2.13469ZM20.5392 23.4471C20.5392 22.9467 20.5392 22.4864 20.5392 22.0263C20.5415 21.4356 20.5224 21.4161 19.9324 21.4108C19.9781 22.0471 20.0241 22.6868 20.0735 23.3698L20.5392 23.4471ZM12.4131 9.9814C12.1991 10.1748 12.0553 10.7897 12.1625 11.0056C12.1837 11.0482 12.2195 11.0817 12.2633 11.1003C12.7273 11.2544 13.1927 11.4025 13.7595 11.5865L12.4131 9.9814ZM20.5194 20.5118L20.385 19.6639L20.2932 19.6377C20.2932 20.0605 20.0264 20.0807 19.7348 20.0572C19.5886 20.0454 19.4371 20.0454 19.298 20.0051C18.964 19.9081 18.7469 20.0357 18.5735 20.3161C19.2012 20.5085 19.7936 20.7916 20.5194 20.5132V20.5118ZM20.8534 27.1023L20.0469 27.1436C20.019 27.4911 19.9935 27.8098 19.967 28.1372L20.852 28.2333L20.8534 27.1023ZM10.1978 6.31947L11.0002 7.22782V5.22475L10.1978 6.31947ZM24.1422 25.7352C23.8398 25.9203 23.3415 25.5358 23.2686 26.065C23.1866 26.6711 23.4568 26.8595 24.1422 26.8138V25.7352ZM5.26823 21.8728H6.0928C6.10254 21.1794 5.76787 20.671 5.26823 20.6089V21.8728ZM6.93349 19.7203L5.81559 19.8181C6.13715 20.1874 6.4493 20.5474 6.82664 20.9813C6.86192 20.5481 6.89451 20.1622 6.93215 19.7203H6.93349ZM20.8739 29.5486C20.8255 29.3176 21.0496 29.0536 20.7035 28.9663C20.4226 28.8958 20.1306 28.8693 19.8813 28.829L19.4828 29.3663L20.8739 29.5486ZM41.5455 36.3023V35.2814L41.0378 35.2354V36.2563L41.5455 36.3023ZM19.1498 26.471C19.131 25.8427 18.9055 25.6419 18.3676 25.7322V26.5284L19.1498 26.471ZM10.5345 18.5947C10.5318 18.5662 10.5295 18.538 10.5268 18.5094C9.70254 18.5094 8.87797 18.5044 8.05374 18.5188C7.98654 18.5188 7.92404 18.6532 7.85919 18.7244L7.91565 18.8143L10.5345 18.5947ZM20.5903 24.839C20.5103 24.5818 20.5103 24.3057 20.3823 24.2191C19.9055 23.8967 19.7086 24.3504 19.433 24.6519L20.5903 24.839ZM21.6857 25.0912C22.3809 25.2732 22.4921 25.2191 22.5408 24.6503L21.6857 24.4545V25.0912ZM22.4964 29.2655L21.6252 29.1057C21.6762 29.3656 21.4676 29.6624 21.9068 29.696C22.435 29.736 22.4417 29.7454 22.4971 29.2655H22.4964ZM17.1357 15.9506C16.7604 15.825 16.4184 15.7045 16.0716 15.5994C16.0118 15.5812 15.9322 15.6276 15.8619 15.644C15.8989 15.7149 15.9177 15.8166 15.9762 15.8516C16.3293 16.0638 16.6989 16.1857 17.1357 15.9506ZM23.4238 24.9438L23.5025 25.0378C23.6281 24.9521 23.7985 24.891 23.863 24.7725C23.902 24.701 23.776 24.5401 23.7242 24.4196L23.6049 24.4451C23.544 24.6121 23.4836 24.7788 23.4238 24.9451V24.9438ZM15.2195 17.6568V16.9476L15.1099 16.95C15.0226 17.1931 14.9964 17.4305 15.2195 17.6599V17.6568ZM12.1443 12.2638C12.1558 12.4207 12.1625 12.5103 12.1709 12.6275L12.7757 12.5516V12.4804L12.1443 12.2638ZM28.88 67.8909C28.886 67.9188 28.892 67.9463 28.8984 67.9742L29.4814 68.0077C29.4653 67.8764 29.4542 67.7888 29.4397 67.6699L28.88 67.8909ZM34.5615 65.7555L34.5847 65.8563C34.7712 65.8563 34.958 65.8589 35.1438 65.8452C35.1502 65.8452 35.1438 65.681 35.1438 65.554L34.5615 65.7555Z" fill="#424242"/>
</svg>
